<mxfile host="app.diagrams.net" agent="Mozilla/5.0 (Macintosh; Intel Mac OS X 10_15_7) AppleWebKit/605.1.15 (KHTML, like Gecko) Version/17.4.1 Safari/605.1.15" version="24.9.0">
  <diagram name="Страница — 1" id="QEtrm3NFeXPdNGZDoFTQ">
    <mxGraphModel dx="1794" dy="1351" grid="1" gridSize="10" guides="1" tooltips="1" connect="1" arrows="1" fold="1" page="1" pageScale="1" pageWidth="1169" pageHeight="827" math="0" shadow="0">
      <root>
        <mxCell id="0" />
        <mxCell id="1" parent="0" />
        <mxCell id="NC-Y-FRsUab4wzqfe4RE-20" value="&lt;p style=&quot;margin: 0px; font-style: normal; font-variant-caps: normal; font-stretch: normal; line-height: normal; font-family: &amp;quot;.SF NS&amp;quot;; font-size-adjust: none; font-kerning: auto; font-variant-alternates: normal; font-variant-ligatures: normal; font-variant-numeric: normal; font-variant-east-asian: normal; font-variant-position: normal; font-feature-settings: normal; font-optical-sizing: auto; font-variation-settings: normal; color: rgb(14, 14, 14);&quot;&gt;&lt;b&gt;&lt;font style=&quot;font-size: 19px;&quot;&gt;Родительская сущность&lt;/font&gt;&lt;/b&gt;&lt;/p&gt;" style="rounded=0;whiteSpace=wrap;html=1;" parent="1" vertex="1">
          <mxGeometry x="160" y="80" width="360" height="40" as="geometry" />
        </mxCell>
        <mxCell id="Ny7JmoYhGQZ4EDiAEYTI-1" value="&lt;p style=&quot;margin: 0px; font-style: normal; font-variant-caps: normal; font-stretch: normal; line-height: normal; font-family: &amp;quot;.SF NS&amp;quot;; font-size-adjust: none; font-kerning: auto; font-variant-alternates: normal; font-variant-ligatures: normal; font-variant-numeric: normal; font-variant-east-asian: normal; font-variant-position: normal; font-feature-settings: normal; font-optical-sizing: auto; font-variation-settings: normal; color: rgb(14, 14, 14);&quot;&gt;&lt;b&gt;&lt;font style=&quot;font-size: 19px;&quot;&gt;Атрибут&lt;/font&gt;&lt;/b&gt;&lt;/p&gt;" style="rounded=0;whiteSpace=wrap;html=1;" vertex="1" parent="1">
          <mxGeometry x="520" y="80" width="360" height="40" as="geometry" />
        </mxCell>
        <mxCell id="Ny7JmoYhGQZ4EDiAEYTI-2" value="&lt;p style=&quot;margin: 0px; font-style: normal; font-variant-caps: normal; font-stretch: normal; line-height: normal; font-family: &amp;quot;.SF NS&amp;quot;; font-size-adjust: none; font-kerning: auto; font-variant-alternates: normal; font-variant-ligatures: normal; font-variant-numeric: normal; font-variant-east-asian: normal; font-variant-position: normal; font-feature-settings: normal; font-optical-sizing: auto; font-variation-settings: normal; color: rgb(14, 14, 14);&quot;&gt;&lt;b&gt;&lt;font style=&quot;font-size: 19px;&quot;&gt;Описание&lt;/font&gt;&lt;/b&gt;&lt;/p&gt;" style="rounded=0;whiteSpace=wrap;html=1;" vertex="1" parent="1">
          <mxGeometry x="880" y="80" width="360" height="40" as="geometry" />
        </mxCell>
        <mxCell id="Ny7JmoYhGQZ4EDiAEYTI-3" value="&lt;p style=&quot;margin: 0px; font-style: normal; font-variant-caps: normal; font-stretch: normal; font-size: 15px; line-height: normal; font-family: &amp;quot;.SF NS&amp;quot;; font-size-adjust: none; font-kerning: auto; font-variant-alternates: normal; font-variant-ligatures: normal; font-variant-numeric: normal; font-variant-east-asian: normal; font-variant-position: normal; font-variant-emoji: normal; font-feature-settings: normal; font-optical-sizing: auto; font-variation-settings: normal; color: rgb(14, 14, 14);&quot;&gt;Объект пользователя банковского приложения.&lt;/p&gt;" style="rounded=0;whiteSpace=wrap;html=1;" vertex="1" parent="1">
          <mxGeometry x="880" y="120" width="360" height="80" as="geometry" />
        </mxCell>
        <mxCell id="Ny7JmoYhGQZ4EDiAEYTI-4" value="&lt;p style=&quot;margin: 0px; font-style: normal; font-variant-caps: normal; font-stretch: normal; font-size: 15px; line-height: normal; font-family: &amp;quot;.SF NS&amp;quot;; font-size-adjust: none; font-kerning: auto; font-variant-alternates: normal; font-variant-ligatures: normal; font-variant-numeric: normal; font-variant-east-asian: normal; font-variant-position: normal; font-variant-emoji: normal; font-feature-settings: normal; font-optical-sizing: auto; font-variation-settings: normal; color: rgb(14, 14, 14);&quot;&gt;—–&lt;/p&gt;" style="rounded=0;whiteSpace=wrap;html=1;" vertex="1" parent="1">
          <mxGeometry x="520" y="120" width="360" height="80" as="geometry" />
        </mxCell>
        <mxCell id="Ny7JmoYhGQZ4EDiAEYTI-5" value="&lt;p style=&quot;margin: 0px; font-style: normal; font-variant-caps: normal; font-stretch: normal; font-size: 15px; line-height: normal; font-family: &amp;quot;.SF NS&amp;quot;; font-size-adjust: none; font-kerning: auto; font-variant-alternates: normal; font-variant-ligatures: normal; font-variant-numeric: normal; font-variant-east-asian: normal; font-variant-position: normal; font-variant-emoji: normal; font-feature-settings: normal; font-optical-sizing: auto; font-variation-settings: normal; color: rgb(14, 14, 14);&quot;&gt;User&lt;/p&gt;" style="rounded=0;whiteSpace=wrap;html=1;" vertex="1" parent="1">
          <mxGeometry x="160" y="120" width="360" height="80" as="geometry" />
        </mxCell>
        <mxCell id="Ny7JmoYhGQZ4EDiAEYTI-6" value="&lt;p style=&quot;margin: 0px; font-style: normal; font-variant-caps: normal; font-stretch: normal; font-size: 15px; line-height: normal; font-family: &amp;quot;.SF NS&amp;quot;; font-size-adjust: none; font-kerning: auto; font-variant-alternates: normal; font-variant-ligatures: normal; font-variant-numeric: normal; font-variant-east-asian: normal; font-variant-position: normal; font-variant-emoji: normal; font-feature-settings: normal; font-optical-sizing: auto; font-variation-settings: normal; color: rgb(14, 14, 14);&quot;&gt;Уникальный идентификатор пользователя.&lt;/p&gt;" style="rounded=0;whiteSpace=wrap;html=1;" vertex="1" parent="1">
          <mxGeometry x="880" y="200" width="360" height="80" as="geometry" />
        </mxCell>
        <mxCell id="Ny7JmoYhGQZ4EDiAEYTI-7" value="&lt;p style=&quot;margin: 0px; font-style: normal; font-variant-caps: normal; font-stretch: normal; font-size: 15px; line-height: normal; font-family: &amp;quot;.SF NS&amp;quot;; font-size-adjust: none; font-kerning: auto; font-variant-alternates: normal; font-variant-ligatures: normal; font-variant-numeric: normal; font-variant-east-asian: normal; font-variant-position: normal; font-variant-emoji: normal; font-feature-settings: normal; font-optical-sizing: auto; font-variation-settings: normal; color: rgb(14, 14, 14);&quot;&gt;Идентификатор&lt;/p&gt;" style="rounded=0;whiteSpace=wrap;html=1;" vertex="1" parent="1">
          <mxGeometry x="520" y="200" width="360" height="80" as="geometry" />
        </mxCell>
        <mxCell id="Ny7JmoYhGQZ4EDiAEYTI-8" value="&lt;p style=&quot;margin: 0px; font-style: normal; font-variant-caps: normal; font-stretch: normal; font-size: 15px; line-height: normal; font-family: &amp;quot;.SF NS&amp;quot;; font-size-adjust: none; font-kerning: auto; font-variant-alternates: normal; font-variant-ligatures: normal; font-variant-numeric: normal; font-variant-east-asian: normal; font-variant-position: normal; font-variant-emoji: normal; font-feature-settings: normal; font-optical-sizing: auto; font-variation-settings: normal; color: rgb(14, 14, 14);&quot;&gt;UserID&lt;/p&gt;" style="rounded=0;whiteSpace=wrap;html=1;" vertex="1" parent="1">
          <mxGeometry x="160" y="200" width="360" height="80" as="geometry" />
        </mxCell>
        <mxCell id="Ny7JmoYhGQZ4EDiAEYTI-9" value="&lt;p style=&quot;margin: 0px; font-style: normal; font-variant-caps: normal; font-stretch: normal; font-size: 15px; line-height: normal; font-family: &amp;quot;.SF NS&amp;quot;; font-size-adjust: none; font-kerning: auto; font-variant-alternates: normal; font-variant-ligatures: normal; font-variant-numeric: normal; font-variant-east-asian: normal; font-variant-position: normal; font-variant-emoji: normal; font-feature-settings: normal; font-optical-sizing: auto; font-variation-settings: normal; color: rgb(14, 14, 14);&quot;&gt;Имя пользователя.&lt;/p&gt;" style="rounded=0;whiteSpace=wrap;html=1;" vertex="1" parent="1">
          <mxGeometry x="880" y="280" width="360" height="80" as="geometry" />
        </mxCell>
        <mxCell id="Ny7JmoYhGQZ4EDiAEYTI-10" value="&lt;p style=&quot;margin: 0px; font-style: normal; font-variant-caps: normal; font-stretch: normal; font-size: 15px; line-height: normal; font-family: &amp;quot;.SF NS&amp;quot;; font-size-adjust: none; font-kerning: auto; font-variant-alternates: normal; font-variant-ligatures: normal; font-variant-numeric: normal; font-variant-east-asian: normal; font-variant-position: normal; font-variant-emoji: normal; font-feature-settings: normal; font-optical-sizing: auto; font-variation-settings: normal; color: rgb(14, 14, 14);&quot;&gt;Имя&lt;/p&gt;" style="rounded=0;whiteSpace=wrap;html=1;" vertex="1" parent="1">
          <mxGeometry x="520" y="280" width="360" height="80" as="geometry" />
        </mxCell>
        <mxCell id="Ny7JmoYhGQZ4EDiAEYTI-11" value="&lt;p style=&quot;margin: 0px; font-style: normal; font-variant-caps: normal; font-stretch: normal; font-size: 15px; line-height: normal; font-family: &amp;quot;.SF NS&amp;quot;; font-size-adjust: none; font-kerning: auto; font-variant-alternates: normal; font-variant-ligatures: normal; font-variant-numeric: normal; font-variant-east-asian: normal; font-variant-position: normal; font-variant-emoji: normal; font-feature-settings: normal; font-optical-sizing: auto; font-variation-settings: normal; color: rgb(14, 14, 14);&quot;&gt;Name&lt;/p&gt;" style="rounded=0;whiteSpace=wrap;html=1;" vertex="1" parent="1">
          <mxGeometry x="160" y="280" width="360" height="80" as="geometry" />
        </mxCell>
        <mxCell id="Ny7JmoYhGQZ4EDiAEYTI-12" value="&lt;p style=&quot;margin: 0px; font-style: normal; font-variant-caps: normal; font-stretch: normal; font-size: 15px; line-height: normal; font-family: &amp;quot;.SF NS&amp;quot;; font-size-adjust: none; font-kerning: auto; font-variant-alternates: normal; font-variant-ligatures: normal; font-variant-numeric: normal; font-variant-east-asian: normal; font-variant-position: normal; font-variant-emoji: normal; font-feature-settings: normal; font-optical-sizing: auto; font-variation-settings: normal; color: rgb(14, 14, 14);&quot;&gt;Ссылка на объект “Настройки уведомлений”.&lt;/p&gt;" style="rounded=0;whiteSpace=wrap;html=1;" vertex="1" parent="1">
          <mxGeometry x="880" y="360" width="360" height="80" as="geometry" />
        </mxCell>
        <mxCell id="Ny7JmoYhGQZ4EDiAEYTI-13" value="&lt;p style=&quot;margin: 0px; font-style: normal; font-variant-caps: normal; font-stretch: normal; font-size: 15px; line-height: normal; font-family: &amp;quot;.SF NS&amp;quot;; font-size-adjust: none; font-kerning: auto; font-variant-alternates: normal; font-variant-ligatures: normal; font-variant-numeric: normal; font-variant-east-asian: normal; font-variant-position: normal; font-variant-emoji: normal; font-feature-settings: normal; font-optical-sizing: auto; font-variation-settings: normal; color: rgb(14, 14, 14);&quot;&gt;Настройки уведомлений&lt;/p&gt;" style="rounded=0;whiteSpace=wrap;html=1;" vertex="1" parent="1">
          <mxGeometry x="520" y="360" width="360" height="80" as="geometry" />
        </mxCell>
        <mxCell id="Ny7JmoYhGQZ4EDiAEYTI-14" value="&lt;p style=&quot;margin: 0px; font-style: normal; font-variant-caps: normal; font-stretch: normal; font-size: 15px; line-height: normal; font-family: &amp;quot;.SF NS&amp;quot;; font-size-adjust: none; font-kerning: auto; font-variant-alternates: normal; font-variant-ligatures: normal; font-variant-numeric: normal; font-variant-east-asian: normal; font-variant-position: normal; font-variant-emoji: normal; font-feature-settings: normal; font-optical-sizing: auto; font-variation-settings: normal; color: rgb(14, 14, 14);&quot;&gt;NotificationSettings&lt;/p&gt;" style="rounded=0;whiteSpace=wrap;html=1;" vertex="1" parent="1">
          <mxGeometry x="160" y="360" width="360" height="80" as="geometry" />
        </mxCell>
        <mxCell id="Ny7JmoYhGQZ4EDiAEYTI-15" value="&lt;p style=&quot;margin: 0px; font-style: normal; font-variant-caps: normal; font-stretch: normal; line-height: normal; font-family: &amp;quot;.SF NS&amp;quot;; font-size-adjust: none; font-kerning: auto; font-variant-alternates: normal; font-variant-ligatures: normal; font-variant-numeric: normal; font-variant-east-asian: normal; font-variant-position: normal; font-feature-settings: normal; font-optical-sizing: auto; font-variation-settings: normal; color: rgb(14, 14, 14);&quot;&gt;&lt;b&gt;&lt;font style=&quot;font-size: 19px;&quot;&gt;Родительская сущность&lt;/font&gt;&lt;/b&gt;&lt;/p&gt;" style="rounded=0;whiteSpace=wrap;html=1;" vertex="1" parent="1">
          <mxGeometry x="160" y="600" width="360" height="40" as="geometry" />
        </mxCell>
        <mxCell id="Ny7JmoYhGQZ4EDiAEYTI-16" value="&lt;p style=&quot;margin: 0px; font-style: normal; font-variant-caps: normal; font-stretch: normal; line-height: normal; font-family: &amp;quot;.SF NS&amp;quot;; font-size-adjust: none; font-kerning: auto; font-variant-alternates: normal; font-variant-ligatures: normal; font-variant-numeric: normal; font-variant-east-asian: normal; font-variant-position: normal; font-feature-settings: normal; font-optical-sizing: auto; font-variation-settings: normal; color: rgb(14, 14, 14);&quot;&gt;&lt;b&gt;&lt;font style=&quot;font-size: 19px;&quot;&gt;Атрибут&lt;/font&gt;&lt;/b&gt;&lt;/p&gt;" style="rounded=0;whiteSpace=wrap;html=1;" vertex="1" parent="1">
          <mxGeometry x="520" y="600" width="360" height="40" as="geometry" />
        </mxCell>
        <mxCell id="Ny7JmoYhGQZ4EDiAEYTI-17" value="&lt;p style=&quot;margin: 0px; font-style: normal; font-variant-caps: normal; font-stretch: normal; line-height: normal; font-family: &amp;quot;.SF NS&amp;quot;; font-size-adjust: none; font-kerning: auto; font-variant-alternates: normal; font-variant-ligatures: normal; font-variant-numeric: normal; font-variant-east-asian: normal; font-variant-position: normal; font-feature-settings: normal; font-optical-sizing: auto; font-variation-settings: normal; color: rgb(14, 14, 14);&quot;&gt;&lt;b&gt;&lt;font style=&quot;font-size: 19px;&quot;&gt;Описание&lt;/font&gt;&lt;/b&gt;&lt;/p&gt;" style="rounded=0;whiteSpace=wrap;html=1;" vertex="1" parent="1">
          <mxGeometry x="880" y="600" width="360" height="40" as="geometry" />
        </mxCell>
        <mxCell id="Ny7JmoYhGQZ4EDiAEYTI-18" value="&lt;p style=&quot;margin: 0px; font-style: normal; font-variant-caps: normal; font-stretch: normal; font-size: 15px; line-height: normal; font-family: &amp;quot;.SF NS&amp;quot;; font-size-adjust: none; font-kerning: auto; font-variant-alternates: normal; font-variant-ligatures: normal; font-variant-numeric: normal; font-variant-east-asian: normal; font-variant-position: normal; font-variant-emoji: normal; font-feature-settings: normal; font-optical-sizing: auto; font-variation-settings: normal; color: rgb(14, 14, 14);&quot;&gt;Объект, представляющий настройки уведомлений.&lt;/p&gt;" style="rounded=0;whiteSpace=wrap;html=1;" vertex="1" parent="1">
          <mxGeometry x="880" y="640" width="360" height="80" as="geometry" />
        </mxCell>
        <mxCell id="Ny7JmoYhGQZ4EDiAEYTI-19" value="&lt;p style=&quot;margin: 0px; font-style: normal; font-variant-caps: normal; font-stretch: normal; font-size: 15px; line-height: normal; font-family: &amp;quot;.SF NS&amp;quot;; font-size-adjust: none; font-kerning: auto; font-variant-alternates: normal; font-variant-ligatures: normal; font-variant-numeric: normal; font-variant-east-asian: normal; font-variant-position: normal; font-variant-emoji: normal; font-feature-settings: normal; font-optical-sizing: auto; font-variation-settings: normal; color: rgb(14, 14, 14);&quot;&gt;—–&lt;/p&gt;" style="rounded=0;whiteSpace=wrap;html=1;" vertex="1" parent="1">
          <mxGeometry x="520" y="640" width="360" height="80" as="geometry" />
        </mxCell>
        <mxCell id="Ny7JmoYhGQZ4EDiAEYTI-20" value="&lt;p style=&quot;margin: 0px; font-style: normal; font-variant-caps: normal; font-stretch: normal; font-size: 15px; line-height: normal; font-family: &amp;quot;.SF NS&amp;quot;; font-size-adjust: none; font-kerning: auto; font-variant-alternates: normal; font-variant-ligatures: normal; font-variant-numeric: normal; font-variant-east-asian: normal; font-variant-position: normal; font-variant-emoji: normal; font-feature-settings: normal; font-optical-sizing: auto; font-variation-settings: normal; color: rgb(14, 14, 14);&quot;&gt;NotificationSettings&lt;/p&gt;" style="rounded=0;whiteSpace=wrap;html=1;" vertex="1" parent="1">
          <mxGeometry x="160" y="640" width="360" height="80" as="geometry" />
        </mxCell>
        <mxCell id="Ny7JmoYhGQZ4EDiAEYTI-21" value="&lt;p style=&quot;margin: 0px; font-style: normal; font-variant-caps: normal; font-stretch: normal; font-size: 15px; line-height: normal; font-family: &amp;quot;.SF NS&amp;quot;; font-size-adjust: none; font-kerning: auto; font-variant-alternates: normal; font-variant-ligatures: normal; font-variant-numeric: normal; font-variant-east-asian: normal; font-variant-position: normal; font-variant-emoji: normal; font-feature-settings: normal; font-optical-sizing: auto; font-variation-settings: normal; color: rgb(14, 14, 14);&quot;&gt;Уникальный идентификатор настройки.&lt;/p&gt;" style="rounded=0;whiteSpace=wrap;html=1;" vertex="1" parent="1">
          <mxGeometry x="880" y="720" width="360" height="80" as="geometry" />
        </mxCell>
        <mxCell id="Ny7JmoYhGQZ4EDiAEYTI-22" value="&lt;p style=&quot;margin: 0px; font-style: normal; font-variant-caps: normal; font-stretch: normal; font-size: 15px; line-height: normal; font-family: &amp;quot;.SF NS&amp;quot;; font-size-adjust: none; font-kerning: auto; font-variant-alternates: normal; font-variant-ligatures: normal; font-variant-numeric: normal; font-variant-east-asian: normal; font-variant-position: normal; font-variant-emoji: normal; font-feature-settings: normal; font-optical-sizing: auto; font-variation-settings: normal; color: rgb(14, 14, 14);&quot;&gt;Идентификатор&lt;/p&gt;" style="rounded=0;whiteSpace=wrap;html=1;" vertex="1" parent="1">
          <mxGeometry x="520" y="720" width="360" height="80" as="geometry" />
        </mxCell>
        <mxCell id="Ny7JmoYhGQZ4EDiAEYTI-23" value="&lt;p style=&quot;margin: 0px; font-style: normal; font-variant-caps: normal; font-stretch: normal; font-size: 15px; line-height: normal; font-family: &amp;quot;.SF NS&amp;quot;; font-size-adjust: none; font-kerning: auto; font-variant-alternates: normal; font-variant-ligatures: normal; font-variant-numeric: normal; font-variant-east-asian: normal; font-variant-position: normal; font-variant-emoji: normal; font-feature-settings: normal; font-optical-sizing: auto; font-variation-settings: normal; color: rgb(14, 14, 14);&quot;&gt;NotificationSettings&lt;/p&gt;" style="rounded=0;whiteSpace=wrap;html=1;" vertex="1" parent="1">
          <mxGeometry x="160" y="720" width="360" height="80" as="geometry" />
        </mxCell>
        <mxCell id="Ny7JmoYhGQZ4EDiAEYTI-24" value="&lt;p style=&quot;margin: 0px; font-style: normal; font-variant-caps: normal; font-stretch: normal; font-size: 15px; line-height: normal; font-family: &amp;quot;.SF NS&amp;quot;; font-size-adjust: none; font-kerning: auto; font-variant-alternates: normal; font-variant-ligatures: normal; font-variant-numeric: normal; font-variant-east-asian: normal; font-variant-position: normal; font-variant-emoji: normal; font-feature-settings: normal; font-optical-sizing: auto; font-variation-settings: normal; color: rgb(14, 14, 14);&quot;&gt;Тип уведомления (например, “Транзакции”).&lt;/p&gt;" style="rounded=0;whiteSpace=wrap;html=1;" vertex="1" parent="1">
          <mxGeometry x="880" y="800" width="360" height="80" as="geometry" />
        </mxCell>
        <mxCell id="Ny7JmoYhGQZ4EDiAEYTI-25" value="&lt;p style=&quot;margin: 0px; font-style: normal; font-variant-caps: normal; font-stretch: normal; font-size: 15px; line-height: normal; font-family: &amp;quot;.SF NS&amp;quot;; font-size-adjust: none; font-kerning: auto; font-variant-alternates: normal; font-variant-ligatures: normal; font-variant-numeric: normal; font-variant-east-asian: normal; font-variant-position: normal; font-variant-emoji: normal; font-feature-settings: normal; font-optical-sizing: auto; font-variation-settings: normal; color: rgb(14, 14, 14);&quot;&gt;Тип уведомления&lt;/p&gt;" style="rounded=0;whiteSpace=wrap;html=1;" vertex="1" parent="1">
          <mxGeometry x="520" y="800" width="360" height="80" as="geometry" />
        </mxCell>
        <mxCell id="Ny7JmoYhGQZ4EDiAEYTI-26" value="&lt;p style=&quot;margin: 0px; font-style: normal; font-variant-caps: normal; font-stretch: normal; font-size: 15px; line-height: normal; font-family: &amp;quot;.SF NS&amp;quot;; font-size-adjust: none; font-kerning: auto; font-variant-alternates: normal; font-variant-ligatures: normal; font-variant-numeric: normal; font-variant-east-asian: normal; font-variant-position: normal; font-variant-emoji: normal; font-feature-settings: normal; font-optical-sizing: auto; font-variation-settings: normal; color: rgb(14, 14, 14);&quot;&gt;NotificationType&lt;/p&gt;" style="rounded=0;whiteSpace=wrap;html=1;" vertex="1" parent="1">
          <mxGeometry x="160" y="800" width="360" height="80" as="geometry" />
        </mxCell>
        <mxCell id="Ny7JmoYhGQZ4EDiAEYTI-27" value="&lt;p style=&quot;margin: 0px; font-style: normal; font-variant-caps: normal; font-stretch: normal; font-size: 15px; line-height: normal; font-family: &amp;quot;.SF NS&amp;quot;; font-size-adjust: none; font-kerning: auto; font-variant-alternates: normal; font-variant-ligatures: normal; font-variant-numeric: normal; font-variant-east-asian: normal; font-variant-position: normal; font-variant-emoji: normal; font-feature-settings: normal; font-optical-sizing: auto; font-variation-settings: normal; color: rgb(14, 14, 14);&quot;&gt;Канал доставки (Push, Email, SMS).&lt;/p&gt;" style="rounded=0;whiteSpace=wrap;html=1;" vertex="1" parent="1">
          <mxGeometry x="880" y="880" width="360" height="80" as="geometry" />
        </mxCell>
        <mxCell id="Ny7JmoYhGQZ4EDiAEYTI-28" value="&lt;p style=&quot;margin: 0px; font-style: normal; font-variant-caps: normal; font-stretch: normal; font-size: 15px; line-height: normal; font-family: &amp;quot;.SF NS&amp;quot;; font-size-adjust: none; font-kerning: auto; font-variant-alternates: normal; font-variant-ligatures: normal; font-variant-numeric: normal; font-variant-east-asian: normal; font-variant-position: normal; font-variant-emoji: normal; font-feature-settings: normal; font-optical-sizing: auto; font-variation-settings: normal; color: rgb(14, 14, 14);&quot;&gt;Канал доставки&lt;/p&gt;" style="rounded=0;whiteSpace=wrap;html=1;" vertex="1" parent="1">
          <mxGeometry x="520" y="880" width="360" height="80" as="geometry" />
        </mxCell>
        <mxCell id="Ny7JmoYhGQZ4EDiAEYTI-29" value="&lt;p style=&quot;margin: 0px; font-style: normal; font-variant-caps: normal; font-stretch: normal; font-size: 15px; line-height: normal; font-family: &amp;quot;.SF NS&amp;quot;; font-size-adjust: none; font-kerning: auto; font-variant-alternates: normal; font-variant-ligatures: normal; font-variant-numeric: normal; font-variant-east-asian: normal; font-variant-position: normal; font-variant-emoji: normal; font-feature-settings: normal; font-optical-sizing: auto; font-variation-settings: normal; color: rgb(14, 14, 14);&quot;&gt;Channel&lt;/p&gt;" style="rounded=0;whiteSpace=wrap;html=1;" vertex="1" parent="1">
          <mxGeometry x="160" y="880" width="360" height="80" as="geometry" />
        </mxCell>
        <mxCell id="Ny7JmoYhGQZ4EDiAEYTI-45" value="&lt;p style=&quot;margin: 0px; font-style: normal; font-variant-caps: normal; font-stretch: normal; font-size: 15px; line-height: normal; font-family: &amp;quot;.SF NS&amp;quot;; font-size-adjust: none; font-kerning: auto; font-variant-alternates: normal; font-variant-ligatures: normal; font-variant-numeric: normal; font-variant-east-asian: normal; font-variant-position: normal; font-variant-emoji: normal; font-feature-settings: normal; font-optical-sizing: auto; font-variation-settings: normal; color: rgb(14, 14, 14);&quot;&gt;Состояние уведомления (включено/выключено).&lt;/p&gt;" style="rounded=0;whiteSpace=wrap;html=1;" vertex="1" parent="1">
          <mxGeometry x="880" y="960" width="360" height="80" as="geometry" />
        </mxCell>
        <mxCell id="Ny7JmoYhGQZ4EDiAEYTI-46" value="&lt;p style=&quot;margin: 0px; font-style: normal; font-variant-caps: normal; font-stretch: normal; font-size: 15px; line-height: normal; font-family: &amp;quot;.SF NS&amp;quot;; font-size-adjust: none; font-kerning: auto; font-variant-alternates: normal; font-variant-ligatures: normal; font-variant-numeric: normal; font-variant-east-asian: normal; font-variant-position: normal; font-variant-emoji: normal; font-feature-settings: normal; font-optical-sizing: auto; font-variation-settings: normal; color: rgb(14, 14, 14);&quot;&gt;Включено&lt;/p&gt;" style="rounded=0;whiteSpace=wrap;html=1;" vertex="1" parent="1">
          <mxGeometry x="520" y="960" width="360" height="80" as="geometry" />
        </mxCell>
        <mxCell id="Ny7JmoYhGQZ4EDiAEYTI-47" value="&lt;p style=&quot;margin: 0px; font-style: normal; font-variant-caps: normal; font-stretch: normal; font-size: 15px; line-height: normal; font-family: &amp;quot;.SF NS&amp;quot;; font-size-adjust: none; font-kerning: auto; font-variant-alternates: normal; font-variant-ligatures: normal; font-variant-numeric: normal; font-variant-east-asian: normal; font-variant-position: normal; font-variant-emoji: normal; font-feature-settings: normal; font-optical-sizing: auto; font-variation-settings: normal; color: rgb(14, 14, 14);&quot;&gt;Enabled&lt;/p&gt;" style="rounded=0;whiteSpace=wrap;html=1;" vertex="1" parent="1">
          <mxGeometry x="160" y="960" width="360" height="80" as="geometry" />
        </mxCell>
        <mxCell id="Ny7JmoYhGQZ4EDiAEYTI-48" value="&lt;p style=&quot;margin: 0px; font-style: normal; font-variant-caps: normal; font-stretch: normal; font-size: 15px; line-height: normal; font-family: &amp;quot;.SF NS&amp;quot;; font-size-adjust: none; font-kerning: auto; font-variant-alternates: normal; font-variant-ligatures: normal; font-variant-numeric: normal; font-variant-east-asian: normal; font-variant-position: normal; font-variant-emoji: normal; font-feature-settings: normal; font-optical-sizing: auto; font-variation-settings: normal; color: rgb(14, 14, 14);&quot;&gt;&lt;b&gt;Объект User&lt;/b&gt;&lt;/p&gt;" style="text;html=1;align=center;verticalAlign=middle;resizable=0;points=[];autosize=1;strokeColor=none;fillColor=none;" vertex="1" parent="1">
          <mxGeometry x="160" y="38" width="110" height="30" as="geometry" />
        </mxCell>
        <mxCell id="Ny7JmoYhGQZ4EDiAEYTI-49" value="&lt;p style=&quot;margin: 0px; font-style: normal; font-variant-caps: normal; font-stretch: normal; font-size: 15px; line-height: normal; font-family: &amp;quot;.SF NS&amp;quot;; font-size-adjust: none; font-kerning: auto; font-variant-alternates: normal; font-variant-ligatures: normal; font-variant-numeric: normal; font-variant-east-asian: normal; font-variant-position: normal; font-variant-emoji: normal; font-feature-settings: normal; font-optical-sizing: auto; font-variation-settings: normal; color: rgb(14, 14, 14);&quot;&gt;&lt;b&gt;Объект NotificationSettings&lt;/b&gt;&lt;/p&gt;" style="text;html=1;align=center;verticalAlign=middle;resizable=0;points=[];autosize=1;strokeColor=none;fillColor=none;" vertex="1" parent="1">
          <mxGeometry x="160" y="550" width="200" height="30" as="geometry" />
        </mxCell>
      </root>
    </mxGraphModel>
  </diagram>
</mxfile>
